<?xml version="1.0" standalone="no"?>
<!DOCTYPE svg PUBLIC "-//W3C//DTD SVG 20010904//EN"
 "http://www.w3.org/TR/2001/REC-SVG-20010904/DTD/svg10.dtd">
<svg version="1.0" xmlns="http://www.w3.org/2000/svg"
 width="238.000000pt" height="212.000000pt" viewBox="0 0 238.000000 212.000000"
 preserveAspectRatio="xMidYMid meet">

<g transform="translate(0.000000,212.000000) scale(0.100000,-0.100000)"
fill="#000000" stroke="none">
<path d="M986 2044 c-215 -42 -374 -129 -531 -289 -320 -326 -376 -817 -139
-1217 66 -112 220 -266 332 -332 598 -355 1351 -36 1508 639 29 124 25 339 -9
468 -98 369 -396 650 -772 728 -107 22 -286 24 -389 3z m299 -144 c13 -6 15
-9 5 -9 -26 -2 -188 -88 -258 -137 -95 -67 -223 -195 -283 -281 -52 -75 -129
-229 -129 -257 0 -19 30 -36 65 -36 23 0 24 2 15 20 -14 26 4 69 72 167 143
208 382 381 631 458 l87 28 63 -31 c34 -17 89 -50 121 -73 l60 -43 -70 -21
c-83 -26 -119 -44 -201 -100 -62 -43 -73 -46 -73 -15 0 9 -6 24 -13 34 -12 16
-20 11 -88 -61 -42 -43 -94 -98 -117 -123 -23 -25 -42 -40 -42 -34 0 19 95
156 147 212 27 28 47 52 45 52 -2 0 -35 -20 -72 -45 -89 -59 -154 -132 -212
-236 -53 -96 -96 -144 -153 -171 l-40 -19 85 6 c105 7 124 7 201 5 58 -2 69 2
212 74 201 100 275 120 427 114 80 -4 130 -11 164 -24 50 -19 50 -19 67 -89
21 -80 34 -232 24 -264 -6 -21 -7 -20 -49 13 -47 39 -140 86 -171 86 -16 0
-15 -3 10 -19 90 -55 183 -200 172 -268 -8 -49 -68 -172 -119 -245 -40 -56
-43 -59 -49 -37 -4 13 -7 47 -8 76 -2 110 -47 275 -96 353 -24 38 -90 101
-126 121 -76 40 -201 49 -327 23 -96 -20 -207 -65 -208 -84 0 -8 -54 -69 -120
-135 -102 -102 -127 -133 -162 -202 l-41 -83 -27 33 c-41 49 -84 149 -94 219
-9 63 1 182 21 237 9 25 9 25 -7 6 -29 -36 -65 -122 -75 -184 -23 -131 27
-265 143 -384 l70 -72 10 30 c54 161 115 269 201 362 164 176 398 244 557 163
59 -30 117 -101 137 -167 31 -104 17 -364 -26 -475 -9 -23 -99 -88 -123 -88
-4 0 4 25 18 56 45 102 78 302 55 340 -9 17 -10 15 -11 -12 -1 -113 -120 -302
-263 -416 -41 -32 -56 -38 -95 -38 l-47 1 30 21 c60 42 182 174 216 233 55 95
52 95 -40 5 -124 -123 -239 -179 -410 -201 -83 -11 -88 -10 -144 15 -145 64
-305 206 -387 345 -93 156 -134 352 -112 528 24 191 98 347 230 485 169 177
375 266 617 266 50 1 99 -3 110 -8z m597 -364 c27 -38 48 -73 48 -77 0 -4 -19
-2 -42 3 -24 5 -88 8 -143 5 -109 -5 -220 -38 -304 -91 -23 -15 -45 -26 -47
-24 -7 7 82 110 120 139 54 40 20 39 -61 -1 -70 -35 -84 -49 -106 -110 -18
-49 -82 -106 -150 -135 -40 -17 -117 -20 -117 -5 0 17 121 139 188 190 47 35
70 46 78 39 9 -7 27 0 61 24 113 81 224 117 343 114 l85 -2 47 -69z"/>
<path d="M702 1105 c-19 -24 -39 -82 -30 -90 1 -2 20 17 42 42 34 40 37 46 24
60 -14 13 -18 12 -36 -12z"/>
</g>
</svg>
